<svg width="108" height="107" viewBox="0 0 108 107" fill="none" xmlns="http://www.w3.org/2000/svg">
<path d="M37.9998 0.333374V11H69.9998V0.333374H80.6665V11H102C104.945 11 107.333 13.3879 107.333 16.3334V101.667C107.333 104.612 104.945 107 102 107H5.99984C3.05434 107 0.666504 104.612 0.666504 101.667V16.3334C0.666504 13.3879 3.05434 11 5.99984 11H27.3332V0.333374H37.9998ZM96.6665 48.3334H11.3332V96.3334H96.6665V48.3334ZM70.1892 54.392L77.7316 61.935L51.3332 88.3334L32.477 69.4774L40.0195 61.935L51.3332 73.2486L70.1892 54.392ZM27.3332 21.6667H11.3332V37.6667H96.6665V21.6667H80.6665V27H69.9998V21.6667H37.9998V27H27.3332V21.6667Z" fill="#6B7280"/>
</svg>
