<svg version="1.1" xmlns="http://www.w3.org/2000/svg" xmlns:xlink="http://www.w3.org/1999/xlink" width="72px" height="72px" viewBox="0,0,256,256"><g fill="#000000" fill-rule="nonzero" stroke="none" stroke-width="1" stroke-linecap="butt" stroke-linejoin="miter" stroke-miterlimit="10" stroke-dasharray="" stroke-dashoffset="0" font-family="none" font-weight="none" font-size="none" text-anchor="none" style="mix-blend-mode: normal"><g transform="scale(3.55556,3.55556)"><path d="M13,13c-3.314,0 -6,2.686 -6,6v34c0,3.314 2.686,6 6,6h29.33398c-0.199,-0.97 -0.30273,-1.973 -0.30273,-3c0,-1.755 0.31895,-3.434 0.87695,-5h-16.82617l15.36523,-14.19141c1.912,-1.766 4.86034,-1.76881 6.77734,-0.00781l5.11523,4.70117c1.174,-0.296 2.39516,-0.4707 3.66016,-0.4707c2.943,0 5.683,0.86489 8,2.33789v-24.36914c0,-3.314 -2.686,-6 -6,-6zM27,24c2.209,0 4,1.791 4,4c0,2.209 -1.791,4 -4,4c-2.209,0 -4,-1.791 -4,-4c0,-2.209 1.791,-4 4,-4zM25.24805,39.41406c1.16,-0.00212 2.31981,0.39672 3.25781,1.19922l1.51953,1.30078l-9.83789,9.08594h-4.1875c-0.552,0 -1,-0.448 -1,-1v-3.34961l6.99219,-6.02344c0.935,-0.806 2.09586,-1.21077 3.25586,-1.21289zM57,45.03125c-6.058,0 -10.96875,4.91075 -10.96875,10.96875c0,6.058 4.91075,10.96875 10.96875,10.96875c6.058,0 10.96875,-4.91075 10.96875,-10.96875c0,-6.058 -4.91075,-10.96875 -10.96875,-10.96875zM57,49.375c1.104,0 2,0.896 2,2v2.625h2.625c1.104,0 2,0.896 2,2c0,1.104 -0.896,2 -2,2h-2.625v2.625c0,1.104 -0.896,2 -2,2c-1.104,0 -2,-0.896 -2,-2v-2.625h-2.625c-1.104,0 -2,-0.896 -2,-2c0,-1.104 0.896,-2 2,-2h2.625v-2.625c0,-1.104 0.896,-2 2,-2z"></path></g></g></svg>