<svg width="102" height="118" viewBox="0 0 102 118" fill="none" xmlns="http://www.w3.org/2000/svg">
<path d="M43.0002 69.6667V80.3334C25.327 80.3334 11.0002 94.6603 11.0002 112.333H0.333496C0.333496 88.7691 19.436 69.6667 43.0002 69.6667ZM43.0002 64.3334C25.3202 64.3334 11.0002 50.0134 11.0002 32.3334C11.0002 14.6534 25.3202 0.333374 43.0002 0.333374C60.6802 0.333374 75.0002 14.6534 75.0002 32.3334C75.0002 50.0134 60.6802 64.3334 43.0002 64.3334ZM43.0002 53.6667C54.7868 53.6667 64.3335 44.12 64.3335 32.3334C64.3335 20.5467 54.7868 11 43.0002 11C31.2135 11 21.6668 20.5467 21.6668 32.3334C21.6668 44.12 31.2135 53.6667 43.0002 53.6667ZM93.3799 101.837L101.399 109.856L93.8562 117.398L85.8375 109.38C82.6615 111.257 78.9564 112.333 75.0002 112.333C63.2183 112.333 53.6668 102.782 53.6668 91C53.6668 79.2182 63.2183 69.6667 75.0002 69.6667C86.782 69.6667 96.3335 79.2182 96.3335 91C96.3335 94.9563 95.2567 98.6614 93.3799 101.837ZM75.0002 101.667C80.8914 101.667 85.6668 96.8912 85.6668 91C85.6668 85.1088 80.8914 80.3334 75.0002 80.3334C69.109 80.3334 64.3335 85.1088 64.3335 91C64.3335 96.8912 69.109 101.667 75.0002 101.667Z" fill="#6B7280"/>
</svg>
