<svg width="1318" height="333" viewBox="0 0 1318 333" fill="none" xmlns="http://www.w3.org/2000/svg">
<circle cx="144.5" cy="196.5" r="77.5" stroke="black" stroke-width="2"/>
<circle cx="226.5" cy="88.5" r="77.5" stroke="black" stroke-width="2"/>
<circle cx="309.5" cy="195.5" r="77.5" stroke="black" stroke-width="2"/>
<path d="M270 195C270 195 268 173.5 288.5 165" stroke="black" stroke-width="2"/>
<path d="M507.19 90.95C515.01 90.95 521.98 92.9333 528.1 96.9C534.333 100.753 539.207 106.363 542.72 113.73C546.347 120.983 548.16 129.597 548.16 139.57C548.16 149.43 546.347 158.043 542.72 165.41C539.207 172.777 534.333 178.443 528.1 182.41C521.98 186.263 515.01 188.19 507.19 188.19C499.937 188.19 493.703 186.547 488.49 183.26C483.277 179.973 479.48 175.497 477.1 169.83V187H448.03V61.2H477.1V109.31C479.48 103.643 483.277 99.1667 488.49 95.88C493.703 92.5933 499.937 90.95 507.19 90.95ZM497.84 116.45C491.72 116.45 486.677 118.547 482.71 122.74C478.857 126.82 476.93 132.43 476.93 139.57C476.93 146.597 478.857 152.207 482.71 156.4C486.677 160.593 491.72 162.69 497.84 162.69C504.073 162.69 509.06 160.65 512.8 156.57C516.653 152.49 518.58 146.823 518.58 139.57C518.58 132.317 516.653 126.65 512.8 122.57C509.06 118.49 504.073 116.45 497.84 116.45ZM592.315 61.2V187H563.245V61.2H592.315ZM706.735 92.14V187H677.495V169.83C674.775 175.383 670.695 179.803 665.255 183.09C659.929 186.377 653.695 188.02 646.555 188.02C635.675 188.02 627.005 184.393 620.545 177.14C614.199 169.887 611.025 159.913 611.025 147.22V92.14H639.925V143.65C639.925 150.11 641.569 155.153 644.855 158.78C648.255 162.293 652.789 164.05 658.455 164.05C664.349 164.05 668.995 162.18 672.395 158.44C675.795 154.7 677.495 149.373 677.495 142.46V92.14H706.735ZM816.87 137.02C816.87 139.4 816.587 142.007 816.02 144.84H750.23C750.57 151.98 752.384 157.137 755.67 160.31C758.957 163.37 763.15 164.9 768.25 164.9C772.557 164.9 776.127 163.823 778.96 161.67C781.794 159.517 783.664 156.74 784.57 153.34H815.34C814.094 160.027 811.374 166.033 807.18 171.36C802.987 176.573 797.66 180.71 791.2 183.77C784.74 186.717 777.544 188.19 769.61 188.19C760.317 188.19 752.044 186.263 744.79 182.41C737.65 178.443 732.04 172.777 727.96 165.41C723.88 158.043 721.84 149.43 721.84 139.57C721.84 129.597 723.824 120.983 727.79 113.73C731.87 106.363 737.537 100.753 744.79 96.9C752.044 92.9333 760.317 90.95 769.61 90.95C779.017 90.95 787.29 92.8767 794.43 96.73C801.57 100.583 807.067 106.023 810.92 113.05C814.887 119.963 816.87 127.953 816.87 137.02ZM787.46 132.6C787.574 126.367 785.874 121.72 782.36 118.66C778.96 115.487 774.71 113.9 769.61 113.9C764.284 113.9 759.864 115.487 756.35 118.66C752.837 121.833 750.854 126.48 750.4 132.6H787.46ZM891.184 90.95C899.004 90.95 905.974 92.9333 912.094 96.9C918.327 100.753 923.201 106.363 926.714 113.73C930.341 120.983 932.154 129.597 932.154 139.57C932.154 149.43 930.341 158.043 926.714 165.41C923.201 172.777 918.327 178.443 912.094 182.41C905.974 186.263 899.004 188.19 891.184 188.19C883.931 188.19 877.697 186.547 872.484 183.26C867.271 179.973 863.474 175.497 861.094 169.83V232.22H832.024V92.14H861.094V109.31C863.474 103.643 867.271 99.1667 872.484 95.88C877.697 92.5933 883.931 90.95 891.184 90.95ZM881.834 116.45C875.714 116.45 870.671 118.547 866.704 122.74C862.851 126.82 860.924 132.43 860.924 139.57C860.924 146.597 862.851 152.207 866.704 156.4C870.671 160.593 875.714 162.69 881.834 162.69C888.067 162.69 893.054 160.65 896.794 156.57C900.647 152.49 902.574 146.823 902.574 139.57C902.574 132.317 900.647 126.65 896.794 122.57C893.054 118.49 888.067 116.45 881.834 116.45ZM976.309 109.99C979.936 104.21 984.582 99.62 990.249 96.22C996.029 92.82 1002.26 91.12 1008.95 91.12V122.23H1000.62C992.912 122.23 986.906 123.873 982.599 127.16C978.406 130.447 976.309 136 976.309 143.82V187H947.239V92.14H976.309V109.99ZM1018.4 65.45C1018.4 61.03 1019.98 57.4033 1023.16 54.57C1026.33 51.6233 1030.52 50.15 1035.74 50.15C1040.95 50.15 1045.14 51.6233 1048.32 54.57C1051.49 57.4033 1053.08 61.03 1053.08 65.45C1053.08 69.7567 1051.49 73.3833 1048.32 76.33C1045.14 79.1633 1040.95 80.58 1035.74 80.58C1030.52 80.58 1026.33 79.1633 1023.16 76.33C1019.98 73.3833 1018.4 69.7567 1018.4 65.45ZM1050.19 92.14V187H1021.12V92.14H1050.19ZM1130.44 91.12C1141.32 91.12 1149.93 94.7467 1156.28 102C1162.74 109.253 1165.97 119.227 1165.97 131.92V187H1136.9V135.32C1136.9 128.973 1135.2 124.043 1131.8 120.53C1128.51 116.903 1124.09 115.09 1118.54 115.09C1112.64 115.09 1107.94 116.96 1104.43 120.7C1101.03 124.44 1099.33 129.767 1099.33 136.68V187H1070.26V92.14H1099.33V109.48C1102.05 103.813 1106.07 99.3367 1111.4 96.05C1116.84 92.7633 1123.18 91.12 1130.44 91.12ZM1238.86 162.01V187H1225.77C1214.66 187 1205.99 184.28 1199.76 178.84C1193.64 173.287 1190.58 164.163 1190.58 151.47V116.62H1177.83V92.14H1190.58V68.85H1219.65V92.14H1238.69V116.62H1219.65V151.98C1219.65 155.72 1220.39 158.327 1221.86 159.8C1223.45 161.273 1226.05 162.01 1229.68 162.01H1238.86Z" fill="black"/>
<path d="M144.293 317.293C143.902 317.683 143.902 318.317 144.293 318.707L150.657 325.071C151.047 325.462 151.681 325.462 152.071 325.071C152.462 324.681 152.462 324.047 152.071 323.657L146.414 318L152.071 312.343C152.462 311.953 152.462 311.319 152.071 310.929C151.681 310.538 151.047 310.538 150.657 310.929L144.293 317.293ZM310.707 318.707C311.098 318.317 311.098 317.683 310.707 317.293L304.343 310.929C303.953 310.538 303.319 310.538 302.929 310.929C302.538 311.319 302.538 311.953 302.929 312.343L308.586 318L302.929 323.657C302.538 324.047 302.538 324.681 302.929 325.071C303.319 325.462 303.953 325.462 304.343 325.071L310.707 318.707ZM145 319H310V317H145V319Z" fill="black"/>
<line x1="13" y1="87" x2="227" y2="87" stroke="black" stroke-width="2"/>
<line x1="13" y1="196" x2="51" y2="196" stroke="black" stroke-width="2"/>
<line x1="67" y1="195" x2="387" y2="195" stroke="black" stroke-width="2" stroke-dasharray="6 6"/>
<line x1="227.79" y1="87.387" x2="310.79" y2="194.362" stroke="black" stroke-width="2" stroke-dasharray="6 6"/>
<path d="M27.7071 87.2929C27.3166 86.9024 26.6834 86.9024 26.2929 87.2929L19.9289 93.6569C19.5384 94.0474 19.5384 94.6805 19.9289 95.0711C20.3195 95.4616 20.9526 95.4616 21.3431 95.0711L27 89.4142L32.6569 95.0711C33.0474 95.4616 33.6805 95.4616 34.0711 95.0711C34.4616 94.6805 34.4616 94.0474 34.0711 93.6569L27.7071 87.2929ZM26.2929 196.707C26.6834 197.098 27.3166 197.098 27.7071 196.707L34.0711 190.343C34.4616 189.953 34.4616 189.319 34.0711 188.929C33.6805 188.538 33.0474 188.538 32.6568 188.929L27 194.586L21.3431 188.929C20.9526 188.538 20.3195 188.538 19.9289 188.929C19.5384 189.319 19.5384 189.953 19.9289 190.343L26.2929 196.707ZM26 88L26 196L28 196L28 88L26 88Z" fill="black"/>
<path d="M145 287L145 333" stroke="black" stroke-width="2"/>
<path d="M310 287L310 333" stroke="black" stroke-width="2"/>
<path d="M91.4054 250.716C91.4054 251.268 91.8531 251.716 92.4054 251.716H101.405C101.958 251.716 102.405 251.268 102.405 250.716C102.405 250.164 101.958 249.716 101.405 249.716H93.4054V241.716C93.4054 241.164 92.9577 240.716 92.4054 240.716C91.8531 240.716 91.4054 241.164 91.4054 241.716V250.716ZM145.354 196.354L91.6983 250.009L93.1125 251.423L146.768 197.768L145.354 196.354Z" fill="black"/>
<path d="M7.24 137.84C8.52 137.84 9.55333 138.253 10.34 139.08C11.1267 139.893 11.52 141.073 11.52 142.62V149H9.7V142.78C9.7 141.687 9.42 140.847 8.86 140.26C8.3 139.673 7.54 139.38 6.58 139.38C5.58 139.38 4.78 139.707 4.18 140.36C3.58 141 3.28 141.94 3.28 143.18V149H1.46V134.2H3.28V140.62C3.56 139.727 4.05333 139.04 4.76 138.56C5.48 138.08 6.30667 137.84 7.24 137.84Z" fill="black"/>
<path d="M236.54 293.02L233.38 304H231.42L228.4 295.06L225.36 304H223.38L220.26 293.02H222.1L224.44 302.26L227.48 293.02H229.38L232.44 302.24L234.8 293.02H236.54Z" fill="black"/>
<path d="M898.04 218.76C899.987 218.76 901.72 219.213 903.24 220.12C904.76 221.027 905.947 222.333 906.8 224.04C907.68 225.747 908.12 227.747 908.12 230.04C908.12 232.333 907.68 234.333 906.8 236.04C905.947 237.72 904.76 239.013 903.24 239.92C901.72 240.827 899.987 241.28 898.04 241.28C895.907 241.28 894.093 240.747 892.6 239.68C891.133 238.587 890.12 237.16 889.56 235.4V251.4H885.92V219.04H889.56V224.64C890.12 222.88 891.133 221.467 892.6 220.4C894.093 219.307 895.907 218.76 898.04 218.76ZM897 222C895.587 222 894.307 222.333 893.16 223C892.013 223.64 891.12 224.573 890.48 225.8C889.84 227.027 889.52 228.44 889.52 230.04C889.52 231.64 889.84 233.053 890.48 234.28C891.12 235.48 892.013 236.413 893.16 237.08C894.307 237.747 895.587 238.08 897 238.08C899.267 238.08 901.067 237.373 902.4 235.96C903.76 234.52 904.44 232.547 904.44 230.04C904.44 227.533 903.76 225.573 902.4 224.16C901.067 222.72 899.267 222 897 222ZM922.833 218.76C924.94 218.76 926.82 219.213 928.473 220.12C930.153 221.027 931.46 222.333 932.393 224.04C933.353 225.747 933.833 227.747 933.833 230.04C933.833 232.333 933.353 234.333 932.393 236.04C931.46 237.72 930.153 239.013 928.473 239.92C926.82 240.827 924.94 241.28 922.833 241.28C920.726 241.28 918.833 240.827 917.153 239.92C915.5 239.013 914.193 237.72 913.233 236.04C912.273 234.333 911.793 232.333 911.793 230.04C911.793 227.747 912.273 225.747 913.233 224.04C914.193 222.333 915.5 221.027 917.153 220.12C918.833 219.213 920.726 218.76 922.833 218.76ZM922.833 221.96C921.526 221.96 920.313 222.253 919.193 222.84C918.1 223.427 917.206 224.333 916.513 225.56C915.846 226.76 915.513 228.253 915.513 230.04C915.513 231.8 915.846 233.293 916.513 234.52C917.206 235.72 918.1 236.613 919.193 237.2C920.313 237.787 921.526 238.08 922.833 238.08C924.14 238.08 925.34 237.787 926.433 237.2C927.553 236.613 928.446 235.72 929.113 234.52C929.806 233.293 930.153 231.8 930.153 230.04C930.153 228.253 929.806 226.76 929.113 225.56C928.446 224.333 927.553 223.427 926.433 222.84C925.34 222.253 924.14 221.96 922.833 221.96ZM968.736 219.04L962.416 241H958.496L952.456 223.12L946.376 241H942.416L936.176 219.04H939.856L944.536 237.52L950.616 219.04H954.416L960.536 237.48L965.256 219.04H968.736ZM992.331 228.8C992.331 229.573 992.278 230.24 992.171 230.8H974.611C974.691 233.307 975.398 235.187 976.731 236.44C978.091 237.693 979.744 238.32 981.691 238.32C983.451 238.32 984.918 237.88 986.091 237C987.291 236.093 988.024 234.893 988.291 233.4H992.171C991.904 234.92 991.304 236.28 990.371 237.48C989.464 238.68 988.278 239.613 986.811 240.28C985.344 240.947 983.691 241.28 981.851 241.28C979.744 241.28 977.878 240.827 976.251 239.92C974.624 239.013 973.344 237.72 972.411 236.04C971.504 234.333 971.051 232.333 971.051 230.04C971.051 227.747 971.504 225.747 972.411 224.04C973.344 222.333 974.624 221.027 976.251 220.12C977.878 219.213 979.744 218.76 981.851 218.76C983.984 218.76 985.838 219.213 987.411 220.12C989.011 221.027 990.224 222.24 991.051 223.76C991.904 225.28 992.331 226.96 992.331 228.8ZM988.651 229.04C988.731 227.413 988.464 226.053 987.851 224.96C987.238 223.867 986.398 223.053 985.331 222.52C984.264 221.987 983.104 221.72 981.851 221.72C979.851 221.72 978.171 222.347 976.811 223.6C975.451 224.827 974.718 226.64 974.611 229.04H988.651ZM1000.73 223.48C1001.45 221.96 1002.51 220.787 1003.89 219.96C1005.28 219.107 1006.93 218.68 1008.85 218.68V222.64H1007.73C1005.68 222.64 1004 223.173 1002.69 224.24C1001.39 225.28 1000.73 227.013 1000.73 229.44V241H997.092V219.04H1000.73V223.48ZM1032.64 228.8C1032.64 229.573 1032.59 230.24 1032.48 230.8H1014.92C1015 233.307 1015.71 235.187 1017.04 236.44C1018.4 237.693 1020.06 238.32 1022 238.32C1023.76 238.32 1025.23 237.88 1026.4 237C1027.6 236.093 1028.34 234.893 1028.6 233.4H1032.48C1032.22 234.92 1031.62 236.28 1030.68 237.48C1029.78 238.68 1028.59 239.613 1027.12 240.28C1025.66 240.947 1024 241.28 1022.16 241.28C1020.06 241.28 1018.19 240.827 1016.56 239.92C1014.94 239.013 1013.66 237.72 1012.72 236.04C1011.82 234.333 1011.36 232.333 1011.36 230.04C1011.36 227.747 1011.82 225.747 1012.72 224.04C1013.66 222.333 1014.94 221.027 1016.56 220.12C1018.19 219.213 1020.06 218.76 1022.16 218.76C1024.3 218.76 1026.15 219.213 1027.72 220.12C1029.32 221.027 1030.54 222.24 1031.36 223.76C1032.22 225.28 1032.64 226.96 1032.64 228.8ZM1028.96 229.04C1029.04 227.413 1028.78 226.053 1028.16 224.96C1027.55 223.867 1026.71 223.053 1025.64 222.52C1024.58 221.987 1023.42 221.72 1022.16 221.72C1020.16 221.72 1018.48 222.347 1017.12 223.6C1015.76 224.827 1015.03 226.64 1014.92 229.04H1028.96ZM1046.4 218.76C1048.54 218.76 1050.34 219.293 1051.8 220.36C1053.3 221.427 1054.34 222.853 1054.92 224.64V211.4H1058.56V241H1054.92V235.4C1054.34 237.187 1053.3 238.613 1051.8 239.68C1050.34 240.747 1048.54 241.28 1046.4 241.28C1044.46 241.28 1042.72 240.827 1041.2 239.92C1039.68 239.013 1038.48 237.72 1037.6 236.04C1036.75 234.333 1036.32 232.333 1036.32 230.04C1036.32 227.747 1036.75 225.747 1037.6 224.04C1038.48 222.333 1039.68 221.027 1041.2 220.12C1042.72 219.213 1044.46 218.76 1046.4 218.76ZM1047.44 222C1045.2 222 1043.4 222.72 1042.04 224.16C1040.71 225.573 1040.04 227.533 1040.04 230.04C1040.04 232.547 1040.71 234.52 1042.04 235.96C1043.4 237.373 1045.2 238.08 1047.44 238.08C1048.88 238.08 1050.16 237.747 1051.28 237.08C1052.43 236.413 1053.32 235.48 1053.96 234.28C1054.6 233.053 1054.92 231.64 1054.92 230.04C1054.92 228.44 1054.6 227.027 1053.96 225.8C1053.32 224.573 1052.43 223.64 1051.28 223C1050.16 222.333 1048.88 222 1047.44 222ZM1086.36 218.76C1088.31 218.76 1090.04 219.213 1091.56 220.12C1093.08 221.027 1094.27 222.333 1095.12 224.04C1096 225.747 1096.44 227.747 1096.44 230.04C1096.44 232.333 1096 234.333 1095.12 236.04C1094.27 237.72 1093.08 239.013 1091.56 239.92C1090.04 240.827 1088.31 241.28 1086.36 241.28C1084.23 241.28 1082.41 240.747 1080.92 239.68C1079.45 238.587 1078.44 237.16 1077.88 235.4V241H1074.24V211.4H1077.88V224.64C1078.44 222.88 1079.45 221.467 1080.92 220.4C1082.41 219.307 1084.23 218.76 1086.36 218.76ZM1085.32 222C1083.91 222 1082.63 222.333 1081.48 223C1080.33 223.64 1079.44 224.573 1078.8 225.8C1078.16 227.027 1077.84 228.44 1077.84 230.04C1077.84 231.64 1078.16 233.053 1078.8 234.28C1079.44 235.48 1080.33 236.413 1081.48 237.08C1082.63 237.747 1083.91 238.08 1085.32 238.08C1087.59 238.08 1089.39 237.373 1090.72 235.96C1092.08 234.52 1092.76 232.547 1092.76 230.04C1092.76 227.533 1092.08 225.573 1090.72 224.16C1089.39 222.72 1087.59 222 1085.32 222ZM1102.71 219.04L1109.83 236.32L1116.43 219.04H1120.47L1107.43 251.4H1103.31L1107.87 240.64L1098.63 219.04H1102.71ZM1142.69 218.76C1144.83 218.76 1146.63 219.293 1148.09 220.36C1149.59 221.427 1150.63 222.853 1151.21 224.64V219.04H1154.85V241H1151.21V235.4C1150.63 237.187 1149.59 238.613 1148.09 239.68C1146.63 240.747 1144.83 241.28 1142.69 241.28C1140.75 241.28 1139.01 240.827 1137.49 239.92C1135.97 239.013 1134.77 237.72 1133.89 236.04C1133.04 234.333 1132.61 232.333 1132.61 230.04C1132.61 227.747 1133.04 225.747 1133.89 224.04C1134.77 222.333 1135.97 221.027 1137.49 220.12C1139.01 219.213 1140.75 218.76 1142.69 218.76ZM1143.73 222C1141.49 222 1139.69 222.72 1138.33 224.16C1137 225.573 1136.33 227.533 1136.33 230.04C1136.33 232.547 1137 234.52 1138.33 235.96C1139.69 237.373 1141.49 238.08 1143.73 238.08C1145.17 238.08 1146.45 237.747 1147.57 237.08C1148.72 236.413 1149.61 235.48 1150.25 234.28C1150.89 233.053 1151.21 231.64 1151.21 230.04C1151.21 228.44 1150.89 227.027 1150.25 225.8C1149.61 224.573 1148.72 223.64 1147.57 223C1146.45 222.333 1145.17 222 1143.73 222ZM1171.13 237.8V241H1168.41C1166.17 241 1164.49 240.467 1163.37 239.4C1162.27 238.333 1161.73 236.547 1161.73 234.04V222.2H1158.45V219.04H1161.73V213.56H1165.41V219.04H1171.09V222.2H1165.41V234.12C1165.41 235.533 1165.66 236.507 1166.17 237.04C1166.7 237.547 1167.61 237.8 1168.89 237.8H1171.13ZM1195.77 228.8C1195.77 229.573 1195.72 230.24 1195.61 230.8H1178.05C1178.13 233.307 1178.84 235.187 1180.17 236.44C1181.53 237.693 1183.18 238.32 1185.13 238.32C1186.89 238.32 1188.36 237.88 1189.53 237C1190.73 236.093 1191.46 234.893 1191.73 233.4H1195.61C1195.34 234.92 1194.74 236.28 1193.81 237.48C1192.9 238.68 1191.72 239.613 1190.25 240.28C1188.78 240.947 1187.13 241.28 1185.29 241.28C1183.18 241.28 1181.32 240.827 1179.69 239.92C1178.06 239.013 1176.78 237.72 1175.85 236.04C1174.94 234.333 1174.49 232.333 1174.49 230.04C1174.49 227.747 1174.94 225.747 1175.85 224.04C1176.78 222.333 1178.06 221.027 1179.69 220.12C1181.32 219.213 1183.18 218.76 1185.29 218.76C1187.42 218.76 1189.28 219.213 1190.85 220.12C1192.45 221.027 1193.66 222.24 1194.49 223.76C1195.34 225.28 1195.77 226.96 1195.77 228.8ZM1192.09 229.04C1192.17 227.413 1191.9 226.053 1191.29 224.96C1190.68 223.867 1189.84 223.053 1188.77 222.52C1187.7 221.987 1186.54 221.72 1185.29 221.72C1183.29 221.72 1181.61 222.347 1180.25 223.6C1178.89 224.827 1178.16 226.64 1178.05 229.04H1192.09ZM1204.17 211.4V241H1200.53V211.4H1204.17ZM1209.38 212.6C1209.38 211.933 1209.61 211.4 1210.06 211C1210.51 210.573 1211.11 210.36 1211.86 210.36C1212.61 210.36 1213.21 210.573 1213.66 211C1214.11 211.4 1214.34 211.933 1214.34 212.6C1214.34 213.267 1214.11 213.813 1213.66 214.24C1213.21 214.64 1212.61 214.84 1211.86 214.84C1211.11 214.84 1210.51 214.64 1210.06 214.24C1209.61 213.813 1209.38 213.267 1209.38 212.6ZM1213.66 219.04V241H1210.02V219.04H1213.66ZM1249.67 219.04L1243.35 241H1239.43L1233.39 223.12L1227.31 241H1223.35L1217.11 219.04H1220.79L1225.47 237.52L1231.55 219.04H1235.35L1241.47 237.48L1246.19 219.04H1249.67ZM1262.07 218.76C1264.2 218.76 1266 219.293 1267.47 220.36C1268.96 221.427 1270 222.853 1270.59 224.64V219.04H1274.23V241H1270.59V235.4C1270 237.187 1268.96 238.613 1267.47 239.68C1266 240.747 1264.2 241.28 1262.07 241.28C1260.12 241.28 1258.39 240.827 1256.87 239.92C1255.35 239.013 1254.15 237.72 1253.27 236.04C1252.42 234.333 1251.99 232.333 1251.99 230.04C1251.99 227.747 1252.42 225.747 1253.27 224.04C1254.15 222.333 1255.35 221.027 1256.87 220.12C1258.39 219.213 1260.12 218.76 1262.07 218.76ZM1263.11 222C1260.87 222 1259.07 222.72 1257.71 224.16C1256.38 225.573 1255.71 227.533 1255.71 230.04C1255.71 232.547 1256.38 234.52 1257.71 235.96C1259.07 237.373 1260.87 238.08 1263.11 238.08C1264.55 238.08 1265.83 237.747 1266.95 237.08C1268.1 236.413 1268.99 235.48 1269.63 234.28C1270.27 233.053 1270.59 231.64 1270.59 230.04C1270.59 228.44 1270.27 227.027 1269.63 225.8C1268.99 224.573 1268.1 223.64 1266.95 223C1265.83 222.333 1264.55 222 1263.11 222ZM1283.66 223.48C1284.38 221.96 1285.43 220.787 1286.82 219.96C1288.21 219.107 1289.86 218.68 1291.78 218.68V222.64H1290.66C1288.61 222.64 1286.93 223.173 1285.62 224.24C1284.31 225.28 1283.66 227.013 1283.66 229.44V241H1280.02V219.04H1283.66V223.48ZM1315.57 228.8C1315.57 229.573 1315.52 230.24 1315.41 230.8H1297.85C1297.93 233.307 1298.64 235.187 1299.97 236.44C1301.33 237.693 1302.99 238.32 1304.93 238.32C1306.69 238.32 1308.16 237.88 1309.33 237C1310.53 236.093 1311.27 234.893 1311.53 233.4H1315.41C1315.15 234.92 1314.55 236.28 1313.61 237.48C1312.71 238.68 1311.52 239.613 1310.05 240.28C1308.59 240.947 1306.93 241.28 1305.09 241.28C1302.99 241.28 1301.12 240.827 1299.49 239.92C1297.87 239.013 1296.59 237.72 1295.65 236.04C1294.75 234.333 1294.29 232.333 1294.29 230.04C1294.29 227.747 1294.75 225.747 1295.65 224.04C1296.59 222.333 1297.87 221.027 1299.49 220.12C1301.12 219.213 1302.99 218.76 1305.09 218.76C1307.23 218.76 1309.08 219.213 1310.65 220.12C1312.25 221.027 1313.47 222.24 1314.29 223.76C1315.15 225.28 1315.57 226.96 1315.57 228.8ZM1311.89 229.04C1311.97 227.413 1311.71 226.053 1311.09 224.96C1310.48 223.867 1309.64 223.053 1308.57 222.52C1307.51 221.987 1306.35 221.72 1305.09 221.72C1303.09 221.72 1301.41 222.347 1300.05 223.6C1298.69 224.827 1297.96 226.64 1297.85 229.04H1311.89Z" fill="black"/>
<path d="M134.28 232.24C134.64 231.48 135.167 230.893 135.86 230.48C136.553 230.053 137.38 229.84 138.34 229.84V231.82H137.78C136.753 231.82 135.913 232.087 135.26 232.62C134.607 233.14 134.28 234.007 134.28 235.22V241H132.46V230.02H134.28V232.24Z" fill="black"/>
<path d="M257.48 187L253.28 182.06V187H251.46V172.2H253.28V180.8L257.42 176.02H259.64L254.72 181.48L259.76 187H257.48Z" fill="black"/>
</svg>
