<svg width="359" height="194" viewBox="0 0 359 194" fill="none" xmlns="http://www.w3.org/2000/svg">
<path d="M73.3845 101.4C70.9579 101.4 68.9712 100.933 67.4245 100C65.9045 99.04 64.7712 97.7467 64.0245 96.12C63.2779 94.4933 62.8645 92.64 62.7845 90.56C62.7579 89.4667 62.7445 88.2933 62.7445 87.04C62.7445 85.7867 62.7579 84.5867 62.7845 83.44C62.8645 81.36 63.2779 79.5067 64.0245 77.88C64.7712 76.2267 65.9045 74.9333 67.4245 74C68.9712 73.0667 70.9579 72.6 73.3845 72.6C75.2779 72.6 76.8912 72.8667 78.2245 73.4C79.5579 73.9333 80.6379 74.64 81.4645 75.52C82.3179 76.3733 82.9445 77.3067 83.3445 78.32C83.7712 79.3067 84.0112 80.28 84.0645 81.24C84.0912 81.48 84.0112 81.68 83.8245 81.84C83.6645 81.9733 83.4645 82.04 83.2245 82.04H82.4245C82.2112 82.04 82.0245 81.9867 81.8645 81.88C81.7045 81.7467 81.5979 81.52 81.5445 81.2C81.0379 78.8267 80.0779 77.2 78.6645 76.32C77.2779 75.44 75.5179 75 73.3845 75C70.9579 75 69.0245 75.6933 67.5845 77.08C66.1712 78.44 65.4112 80.6267 65.3045 83.64C65.2245 85.8267 65.2245 88.0667 65.3045 90.36C65.4112 93.3733 66.1712 95.5733 67.5845 96.96C69.0245 98.32 70.9579 99 73.3845 99C75.5179 99 77.2779 98.56 78.6645 97.68C80.0779 96.8 81.0379 95.1733 81.5445 92.8C81.5979 92.48 81.7045 92.2667 81.8645 92.16C82.0245 92.0267 82.2112 91.96 82.4245 91.96H83.2245C83.4645 91.96 83.6645 92.04 83.8245 92.2C84.0112 92.3333 84.0912 92.52 84.0645 92.76C84.0112 93.72 83.7712 94.7067 83.3445 95.72C82.9445 96.7067 82.3179 97.64 81.4645 98.52C80.6379 99.3733 79.5579 100.067 78.2245 100.6C76.8912 101.133 75.2779 101.4 73.3845 101.4ZM87.7248 101C87.5115 101 87.3248 100.92 87.1648 100.76C87.0048 100.6 86.9248 100.413 86.9248 100.2C86.9248 100.067 86.9515 99.92 87.0048 99.76L97.1248 73.8C97.2315 73.5333 97.3648 73.3333 97.5248 73.2C97.7115 73.0667 97.9648 73 98.2848 73H99.6448C99.9648 73 100.205 73.0667 100.365 73.2C100.552 73.3333 100.698 73.5333 100.805 73.8L110.925 99.76C110.978 99.92 111.005 100.067 111.005 100.2C111.005 100.413 110.925 100.6 110.765 100.76C110.605 100.92 110.418 101 110.205 101H109.405C109.138 101 108.938 100.933 108.805 100.8C108.672 100.64 108.578 100.507 108.525 100.4L106.045 94H91.8848L89.4048 100.4C89.3782 100.507 89.2848 100.64 89.1248 100.8C88.9915 100.933 88.7915 101 88.5248 101H87.7248ZM92.8448 91.6H105.085L98.9648 75.84L92.8448 91.6ZM116.62 101C116.354 101 116.14 100.92 115.98 100.76C115.82 100.6 115.74 100.387 115.74 100.12V73.92C115.74 73.6267 115.82 73.4 115.98 73.24C116.14 73.08 116.354 73 116.62 73H125.94C128.74 73 130.967 73.6667 132.62 75C134.3 76.3333 135.14 78.36 135.14 81.08C135.14 83.2133 134.607 84.92 133.54 86.2C132.474 87.48 130.994 88.3467 129.1 88.8L135.54 99.76C135.62 99.92 135.66 100.067 135.66 100.2C135.66 100.413 135.58 100.6 135.42 100.76C135.26 100.92 135.074 101 134.86 101H134.38C133.954 101 133.634 100.893 133.42 100.68C133.207 100.44 133.02 100.187 132.86 99.92L126.5 89.16H118.26V100.12C118.26 100.387 118.18 100.6 118.02 100.76C117.86 100.92 117.634 101 117.34 101H116.62ZM118.26 86.76H125.74C128.06 86.76 129.78 86.2933 130.9 85.36C132.047 84.4 132.62 82.9733 132.62 81.08C132.62 79.1867 132.047 77.7733 130.9 76.84C129.78 75.88 128.06 75.4 125.74 75.4H118.26V86.76ZM150.806 101.4C148.593 101.4 146.713 101.013 145.166 100.24C143.62 99.44 142.433 98.2267 141.606 96.6C140.78 94.9467 140.326 92.8667 140.246 90.36C140.22 89.16 140.206 88.04 140.206 87C140.206 85.96 140.22 84.84 140.246 83.64C140.326 81.16 140.806 79.1067 141.686 77.48C142.566 75.8267 143.78 74.6 145.326 73.8C146.9 73 148.726 72.6 150.806 72.6C152.886 72.6 154.7 73 156.246 73.8C157.82 74.6 159.046 75.8267 159.926 77.48C160.833 79.1067 161.313 81.16 161.366 83.64C161.42 84.84 161.446 85.96 161.446 87C161.446 88.04 161.42 89.16 161.366 90.36C161.313 92.8667 160.86 94.9467 160.006 96.6C159.18 98.2267 157.993 99.44 156.446 100.24C154.9 101.013 153.02 101.4 150.806 101.4ZM150.806 99C153.1 99 154.98 98.3067 156.446 96.92C157.94 95.5333 158.74 93.28 158.846 90.16C158.9 88.96 158.926 87.9067 158.926 87C158.926 86.0933 158.9 85.04 158.846 83.84C158.793 81.76 158.406 80.0667 157.686 78.76C156.993 77.4533 156.046 76.5067 154.846 75.92C153.673 75.3067 152.326 75 150.806 75C149.313 75 147.966 75.3067 146.766 75.92C145.593 76.5067 144.646 77.4533 143.926 78.76C143.233 80.0667 142.846 81.76 142.766 83.84C142.74 85.04 142.726 86.0933 142.726 87C142.726 87.9067 142.74 88.96 142.766 90.16C142.873 93.28 143.673 95.5333 145.166 96.92C146.66 98.3067 148.54 99 150.806 99ZM168.691 101C168.424 101 168.211 100.92 168.051 100.76C167.891 100.6 167.811 100.387 167.811 100.12V73.92C167.811 73.6267 167.891 73.4 168.051 73.24C168.211 73.08 168.424 73 168.691 73H169.531C169.797 73 169.997 73.0667 170.131 73.2C170.264 73.3333 170.344 73.4267 170.371 73.48L185.131 96.04V73.92C185.131 73.6267 185.211 73.4 185.371 73.24C185.531 73.08 185.744 73 186.011 73H186.731C187.024 73 187.251 73.08 187.411 73.24C187.571 73.4 187.651 73.6267 187.651 73.92V100.08C187.651 100.347 187.571 100.573 187.411 100.76C187.251 100.92 187.037 101 186.771 101H185.891C185.624 101 185.424 100.933 185.291 100.8C185.184 100.667 185.104 100.573 185.051 100.52L170.331 78.04V100.12C170.331 100.387 170.251 100.6 170.091 100.76C169.931 100.92 169.704 101 169.411 101H168.691ZM193.155 101C192.941 101 192.755 100.92 192.595 100.76C192.435 100.6 192.355 100.413 192.355 100.2C192.355 100.067 192.381 99.92 192.435 99.76L202.555 73.8C202.661 73.5333 202.795 73.3333 202.955 73.2C203.141 73.0667 203.395 73 203.715 73H205.075C205.395 73 205.635 73.0667 205.795 73.2C205.981 73.3333 206.128 73.5333 206.235 73.8L216.355 99.76C216.408 99.92 216.435 100.067 216.435 100.2C216.435 100.413 216.355 100.6 216.195 100.76C216.035 100.92 215.848 101 215.635 101H214.835C214.568 101 214.368 100.933 214.235 100.8C214.101 100.64 214.008 100.507 213.955 100.4L211.475 94H197.315L194.835 100.4C194.808 100.507 194.715 100.64 194.555 100.8C194.421 100.933 194.221 101 193.955 101H193.155ZM198.275 91.6H210.515L204.395 75.84L198.275 91.6Z" fill="#111827"/>
<path d="M230.65 101.4C227.983 101.4 225.77 101.027 224.01 100.28C222.25 99.5067 220.917 98.5067 220.01 97.28C219.103 96.0533 218.623 94.7467 218.57 93.36C218.57 93.1467 218.65 92.96 218.81 92.8C218.997 92.6133 219.21 92.52 219.45 92.52H224.49C224.863 92.52 225.143 92.5867 225.33 92.72C225.543 92.8533 225.73 93.0267 225.89 93.24C226.103 93.64 226.397 94.0267 226.77 94.4C227.17 94.7733 227.677 95.08 228.29 95.32C228.93 95.5333 229.717 95.64 230.65 95.64C232.197 95.64 233.357 95.4 234.13 94.92C234.93 94.44 235.33 93.7867 235.33 92.96C235.33 92.3733 235.117 91.8933 234.69 91.52C234.263 91.12 233.57 90.7733 232.61 90.48C231.677 90.16 230.423 89.84 228.85 89.52C226.823 89.0933 225.09 88.5467 223.65 87.88C222.237 87.1867 221.157 86.2933 220.41 85.2C219.663 84.08 219.29 82.6933 219.29 81.04C219.29 79.4133 219.743 77.96 220.65 76.68C221.583 75.4 222.877 74.4 224.53 73.68C226.183 72.96 228.143 72.6 230.41 72.6C232.25 72.6 233.863 72.84 235.25 73.32C236.663 73.8 237.85 74.44 238.81 75.24C239.77 76.04 240.49 76.8933 240.97 77.8C241.477 78.68 241.743 79.5467 241.77 80.4C241.77 80.6133 241.69 80.8133 241.53 81C241.37 81.16 241.17 81.24 240.93 81.24H235.65C235.357 81.24 235.103 81.1867 234.89 81.08C234.677 80.9733 234.49 80.8 234.33 80.56C234.17 79.9733 233.743 79.4667 233.05 79.04C232.383 78.5867 231.503 78.36 230.41 78.36C229.237 78.36 228.317 78.5733 227.65 79C227.01 79.4 226.69 80.0267 226.69 80.88C226.69 81.4133 226.863 81.88 227.21 82.28C227.583 82.68 228.183 83.0267 229.01 83.32C229.863 83.6133 231.023 83.92 232.49 84.24C234.917 84.6933 236.877 85.2667 238.37 85.96C239.863 86.6267 240.957 87.5067 241.65 88.6C242.343 89.6667 242.69 91.0133 242.69 92.64C242.69 94.4533 242.17 96.0267 241.13 97.36C240.117 98.6667 238.703 99.6667 236.89 100.36C235.077 101.053 232.997 101.4 230.65 101.4ZM258.135 101.4C255.681 101.4 253.548 101 251.735 100.2C249.921 99.4 248.508 98.2 247.495 96.6C246.481 94.9733 245.921 92.9467 245.815 90.52C245.788 89.3733 245.775 88.2267 245.775 87.08C245.775 85.9333 245.788 84.7733 245.815 83.6C245.921 81.2 246.481 79.1867 247.495 77.56C248.535 75.9067 249.961 74.6667 251.775 73.84C253.588 73.0133 255.708 72.6 258.135 72.6C260.535 72.6 262.641 73.0133 264.455 73.84C266.295 74.6667 267.735 75.9067 268.775 77.56C269.815 79.1867 270.375 81.2 270.455 83.6C270.508 84.7733 270.535 85.9333 270.535 87.08C270.535 88.2267 270.508 89.3733 270.455 90.52C270.348 92.9467 269.788 94.9733 268.775 96.6C267.761 98.2 266.348 99.4 264.535 100.2C262.721 101 260.588 101.4 258.135 101.4ZM258.135 95.64C259.548 95.64 260.695 95.2133 261.575 94.36C262.481 93.5067 262.961 92.1467 263.015 90.28C263.068 89.1067 263.095 88 263.095 86.96C263.095 85.92 263.068 84.84 263.015 83.72C262.961 82.4667 262.721 81.4533 262.295 80.68C261.895 79.88 261.335 79.2933 260.615 78.92C259.895 78.5467 259.068 78.36 258.135 78.36C257.228 78.36 256.415 78.5467 255.695 78.92C254.975 79.2933 254.401 79.88 253.975 80.68C253.548 81.4533 253.308 82.4667 253.255 83.72C253.228 84.84 253.215 85.92 253.215 86.96C253.215 88 253.228 89.1067 253.255 90.28C253.335 92.1467 253.815 93.5067 254.695 94.36C255.575 95.2133 256.721 95.64 258.135 95.64ZM285.611 101.4C282.944 101.4 280.731 101.027 278.971 100.28C277.211 99.5067 275.878 98.5067 274.971 97.28C274.064 96.0533 273.584 94.7467 273.531 93.36C273.531 93.1467 273.611 92.96 273.771 92.8C273.958 92.6133 274.171 92.52 274.411 92.52H279.451C279.824 92.52 280.104 92.5867 280.291 92.72C280.504 92.8533 280.691 93.0267 280.851 93.24C281.064 93.64 281.358 94.0267 281.731 94.4C282.131 94.7733 282.638 95.08 283.251 95.32C283.891 95.5333 284.678 95.64 285.611 95.64C287.158 95.64 288.318 95.4 289.091 94.92C289.891 94.44 290.291 93.7867 290.291 92.96C290.291 92.3733 290.078 91.8933 289.651 91.52C289.224 91.12 288.531 90.7733 287.571 90.48C286.638 90.16 285.384 89.84 283.811 89.52C281.784 89.0933 280.051 88.5467 278.611 87.88C277.198 87.1867 276.118 86.2933 275.371 85.2C274.624 84.08 274.251 82.6933 274.251 81.04C274.251 79.4133 274.704 77.96 275.611 76.68C276.544 75.4 277.838 74.4 279.491 73.68C281.144 72.96 283.104 72.6 285.371 72.6C287.211 72.6 288.824 72.84 290.211 73.32C291.624 73.8 292.811 74.44 293.771 75.24C294.731 76.04 295.451 76.8933 295.931 77.8C296.438 78.68 296.704 79.5467 296.731 80.4C296.731 80.6133 296.651 80.8133 296.491 81C296.331 81.16 296.131 81.24 295.891 81.24H290.611C290.318 81.24 290.064 81.1867 289.851 81.08C289.638 80.9733 289.451 80.8 289.291 80.56C289.131 79.9733 288.704 79.4667 288.011 79.04C287.344 78.5867 286.464 78.36 285.371 78.36C284.198 78.36 283.278 78.5733 282.611 79C281.971 79.4 281.651 80.0267 281.651 80.88C281.651 81.4133 281.824 81.88 282.171 82.28C282.544 82.68 283.144 83.0267 283.971 83.32C284.824 83.6133 285.984 83.92 287.451 84.24C289.878 84.6933 291.838 85.2667 293.331 85.96C294.824 86.6267 295.918 87.5067 296.611 88.6C297.304 89.6667 297.651 91.0133 297.651 92.64C297.651 94.4533 297.131 96.0267 296.091 97.36C295.078 98.6667 293.664 99.6667 291.851 100.36C290.038 101.053 287.958 101.4 285.611 101.4Z" fill="#D14343"/>
<path d="M64.8612 126C64.7439 126 64.6532 125.968 64.5892 125.904C64.5252 125.829 64.4932 125.739 64.4932 125.632V115.184C64.4932 115.067 64.5252 114.976 64.5892 114.912C64.6532 114.837 64.7439 114.8 64.8612 114.8H68.7652C69.9706 114.8 70.9253 115.083 71.6293 115.648C72.3333 116.213 72.6853 117.051 72.6853 118.16C72.6853 118.981 72.4773 119.653 72.0612 120.176C71.6559 120.688 71.1013 121.045 70.3973 121.248L72.8612 125.504C72.8933 125.568 72.9093 125.627 72.9093 125.68C72.9093 125.765 72.8719 125.84 72.7972 125.904C72.7332 125.968 72.6586 126 72.5732 126H71.8053C71.6239 126 71.4906 125.952 71.4053 125.856C71.3199 125.76 71.2453 125.664 71.1812 125.568L68.8612 121.504H66.0612V125.632C66.0612 125.739 66.0239 125.829 65.9492 125.904C65.8852 125.968 65.7946 126 65.6772 126H64.8612ZM66.0612 120.144H68.7013C69.5012 120.144 70.0986 119.979 70.4932 119.648C70.8879 119.307 71.0852 118.805 71.0852 118.144C71.0852 117.493 70.8879 116.997 70.4932 116.656C70.1093 116.315 69.5119 116.144 68.7013 116.144H66.0612V120.144ZM80.3056 126C80.1883 126 80.0976 125.968 80.0336 125.904C79.9696 125.829 79.9376 125.739 79.9376 125.632V115.168C79.9376 115.061 79.9696 114.976 80.0336 114.912C80.0976 114.837 80.1883 114.8 80.3056 114.8H81.1536C81.2603 114.8 81.3456 114.837 81.4096 114.912C81.4843 114.976 81.5216 115.061 81.5216 115.168V125.632C81.5216 125.739 81.4843 125.829 81.4096 125.904C81.3456 125.968 81.2603 126 81.1536 126H80.3056ZM93.2886 126.16C92.382 126.16 91.6033 126.005 90.9526 125.696C90.302 125.376 89.8006 124.891 89.4486 124.24C89.0966 123.579 88.8993 122.752 88.8566 121.76C88.846 121.291 88.8406 120.843 88.8406 120.416C88.8406 119.979 88.846 119.525 88.8566 119.056C88.8993 118.075 89.102 117.259 89.4646 116.608C89.838 115.947 90.35 115.456 91.0006 115.136C91.662 114.805 92.4246 114.64 93.2886 114.64C94.1633 114.64 94.926 114.805 95.5766 115.136C96.238 115.456 96.7553 115.947 97.1286 116.608C97.502 117.259 97.7046 118.075 97.7366 119.056C97.758 119.525 97.7686 119.979 97.7686 120.416C97.7686 120.843 97.758 121.291 97.7366 121.76C97.7046 122.752 97.5073 123.579 97.1446 124.24C96.7926 124.891 96.2913 125.376 95.6406 125.696C94.99 126.005 94.206 126.16 93.2886 126.16ZM93.2886 124.8C94.11 124.8 94.7766 124.555 95.2886 124.064C95.8113 123.573 96.094 122.779 96.1366 121.68C96.158 121.2 96.1686 120.773 96.1686 120.4C96.1686 120.016 96.158 119.589 96.1366 119.12C96.1153 118.384 95.9766 117.787 95.7206 117.328C95.4753 116.869 95.1446 116.533 94.7286 116.32C94.3126 116.107 93.8326 116 93.2886 116C92.766 116 92.2966 116.107 91.8806 116.32C91.4646 116.533 91.1286 116.869 90.8726 117.328C90.6273 117.787 90.4886 118.384 90.4566 119.12C90.446 119.589 90.4406 120.016 90.4406 120.4C90.4406 120.773 90.446 121.2 90.4566 121.68C90.4993 122.779 90.782 123.573 91.3046 124.064C91.8273 124.555 92.4886 124.8 93.2886 124.8ZM118.007 126.16C117.068 126.16 116.268 125.984 115.607 125.632C114.956 125.28 114.455 124.784 114.103 124.144C113.761 123.504 113.569 122.752 113.527 121.888C113.516 121.419 113.511 120.923 113.511 120.4C113.511 119.867 113.516 119.36 113.527 118.88C113.569 118.016 113.761 117.269 114.103 116.64C114.455 116.011 114.961 115.52 115.623 115.168C116.284 114.816 117.079 114.64 118.007 114.64C118.764 114.64 119.42 114.747 119.975 114.96C120.529 115.173 120.983 115.445 121.335 115.776C121.697 116.096 121.964 116.432 122.135 116.784C122.316 117.136 122.412 117.445 122.423 117.712C122.433 117.808 122.407 117.888 122.343 117.952C122.279 118.005 122.193 118.032 122.087 118.032H121.143C121.036 118.032 120.956 118.011 120.903 117.968C120.86 117.925 120.817 117.851 120.775 117.744C120.679 117.467 120.519 117.195 120.295 116.928C120.081 116.661 119.788 116.443 119.415 116.272C119.052 116.091 118.583 116 118.007 116C117.164 116 116.481 116.229 115.959 116.688C115.447 117.147 115.169 117.904 115.127 118.96C115.095 119.909 115.095 120.859 115.127 121.808C115.169 122.875 115.452 123.643 115.975 124.112C116.497 124.571 117.18 124.8 118.023 124.8C118.588 124.8 119.089 124.699 119.527 124.496C119.975 124.283 120.327 123.957 120.583 123.52C120.839 123.083 120.967 122.528 120.967 121.856V121.184H118.567C118.46 121.184 118.369 121.152 118.295 121.088C118.231 121.013 118.199 120.917 118.199 120.8V120.288C118.199 120.171 118.231 120.08 118.295 120.016C118.369 119.941 118.46 119.904 118.567 119.904H122.183C122.3 119.904 122.391 119.941 122.455 120.016C122.519 120.08 122.551 120.171 122.551 120.288V121.824C122.551 122.699 122.369 123.461 122.007 124.112C121.655 124.763 121.137 125.269 120.455 125.632C119.772 125.984 118.956 126.16 118.007 126.16ZM130.161 126C130.044 126 129.953 125.968 129.889 125.904C129.825 125.829 129.793 125.739 129.793 125.632V115.184C129.793 115.067 129.825 114.976 129.889 114.912C129.953 114.837 130.044 114.8 130.161 114.8H134.065C135.271 114.8 136.225 115.083 136.929 115.648C137.633 116.213 137.985 117.051 137.985 118.16C137.985 118.981 137.777 119.653 137.361 120.176C136.956 120.688 136.401 121.045 135.697 121.248L138.161 125.504C138.193 125.568 138.209 125.627 138.209 125.68C138.209 125.765 138.172 125.84 138.097 125.904C138.033 125.968 137.959 126 137.873 126H137.105C136.924 126 136.791 125.952 136.705 125.856C136.62 125.76 136.545 125.664 136.481 125.568L134.161 121.504H131.361V125.632C131.361 125.739 131.324 125.829 131.249 125.904C131.185 125.968 131.095 126 130.977 126H130.161ZM131.361 120.144H134.001C134.801 120.144 135.399 119.979 135.793 119.648C136.188 119.307 136.385 118.805 136.385 118.144C136.385 117.493 136.188 116.997 135.793 116.656C135.409 116.315 134.812 116.144 134.001 116.144H131.361V120.144ZM144.486 126C144.4 126 144.326 125.968 144.262 125.904C144.198 125.84 144.166 125.765 144.166 125.68C144.166 125.627 144.171 125.568 144.182 125.504L148.15 115.152C148.192 115.045 148.251 114.96 148.326 114.896C148.4 114.832 148.512 114.8 148.662 114.8H149.75C149.888 114.8 149.995 114.832 150.07 114.896C150.155 114.96 150.219 115.045 150.262 115.152L154.214 125.504C154.235 125.568 154.246 125.627 154.246 125.68C154.246 125.765 154.214 125.84 154.15 125.904C154.086 125.968 154.011 126 153.926 126H153.11C152.982 126 152.886 125.968 152.822 125.904C152.768 125.84 152.731 125.781 152.71 125.728L151.83 123.456H146.582L145.702 125.728C145.691 125.781 145.654 125.84 145.59 125.904C145.526 125.968 145.43 126 145.302 126H144.486ZM147.046 122.08H151.366L149.206 116.4L147.046 122.08ZM161.284 126C161.167 126 161.076 125.968 161.012 125.904C160.948 125.829 160.916 125.739 160.916 125.632V115.184C160.916 115.067 160.948 114.976 161.012 114.912C161.076 114.837 161.167 114.8 161.284 114.8H162.02C162.148 114.8 162.244 114.832 162.308 114.896C162.372 114.949 162.41 114.992 162.42 115.024L167.732 123.184V115.184C167.732 115.067 167.764 114.976 167.828 114.912C167.892 114.837 167.983 114.8 168.1 114.8H168.868C168.986 114.8 169.076 114.837 169.14 114.912C169.215 114.976 169.252 115.067 169.252 115.184V125.616C169.252 125.723 169.215 125.813 169.14 125.888C169.076 125.963 168.991 126 168.884 126H168.116C167.999 126 167.908 125.968 167.844 125.904C167.791 125.84 167.754 125.797 167.732 125.776L162.436 117.696V125.632C162.436 125.739 162.399 125.829 162.324 125.904C162.26 125.968 162.17 126 162.052 126H161.284ZM177.354 126C177.236 126 177.146 125.968 177.082 125.904C177.018 125.829 176.986 125.739 176.986 125.632V115.184C176.986 115.067 177.018 114.976 177.082 114.912C177.146 114.837 177.236 114.8 177.354 114.8H180.986C182.084 114.8 182.97 114.965 183.642 115.296C184.314 115.627 184.804 116.117 185.114 116.768C185.423 117.408 185.583 118.197 185.594 119.136C185.604 119.616 185.61 120.037 185.61 120.4C185.61 120.763 185.604 121.179 185.594 121.648C185.572 122.629 185.407 123.445 185.098 124.096C184.799 124.736 184.319 125.216 183.658 125.536C183.007 125.845 182.143 126 181.066 126H177.354ZM178.554 124.64H180.986C181.722 124.64 182.308 124.539 182.746 124.336C183.183 124.133 183.498 123.808 183.69 123.36C183.892 122.912 183.999 122.32 184.01 121.584C184.031 121.264 184.042 120.987 184.042 120.752C184.042 120.507 184.042 120.267 184.042 120.032C184.042 119.787 184.031 119.509 184.01 119.2C183.988 118.165 183.743 117.403 183.274 116.912C182.804 116.411 182.015 116.16 180.906 116.16H178.554V124.64ZM193.345 126C193.228 126 193.137 125.968 193.073 125.904C193.009 125.829 192.977 125.739 192.977 125.632V115.184C192.977 115.067 193.009 114.976 193.073 114.912C193.137 114.837 193.228 114.8 193.345 114.8H199.953C200.07 114.8 200.161 114.837 200.225 114.912C200.289 114.976 200.321 115.067 200.321 115.184V115.792C200.321 115.909 200.289 116 200.225 116.064C200.161 116.128 200.07 116.16 199.953 116.16H194.513V119.664H199.601C199.718 119.664 199.809 119.701 199.873 119.776C199.937 119.84 199.969 119.931 199.969 120.048V120.64C199.969 120.747 199.937 120.837 199.873 120.912C199.809 120.976 199.718 121.008 199.601 121.008H194.513V124.64H200.081C200.198 124.64 200.289 124.672 200.353 124.736C200.417 124.8 200.449 124.891 200.449 125.008V125.632C200.449 125.739 200.417 125.829 200.353 125.904C200.289 125.968 200.198 126 200.081 126H193.345ZM216.89 126C216.773 126 216.682 125.968 216.618 125.904C216.554 125.829 216.522 125.739 216.522 125.632V115.184C216.522 115.067 216.554 114.976 216.618 114.912C216.682 114.837 216.773 114.8 216.89 114.8H220.522C221.621 114.8 222.506 114.965 223.178 115.296C223.85 115.627 224.341 116.117 224.65 116.768C224.959 117.408 225.119 118.197 225.13 119.136C225.141 119.616 225.146 120.037 225.146 120.4C225.146 120.763 225.141 121.179 225.13 121.648C225.109 122.629 224.943 123.445 224.634 124.096C224.335 124.736 223.855 125.216 223.194 125.536C222.543 125.845 221.679 126 220.602 126H216.89ZM218.09 124.64H220.522C221.258 124.64 221.845 124.539 222.282 124.336C222.719 124.133 223.034 123.808 223.226 123.36C223.429 122.912 223.535 122.32 223.546 121.584C223.567 121.264 223.578 120.987 223.578 120.752C223.578 120.507 223.578 120.267 223.578 120.032C223.578 119.787 223.567 119.509 223.546 119.2C223.525 118.165 223.279 117.403 222.81 116.912C222.341 116.411 221.551 116.16 220.442 116.16H218.09V124.64ZM236.529 126.16C235.623 126.16 234.844 126.005 234.193 125.696C233.543 125.376 233.041 124.891 232.689 124.24C232.337 123.579 232.14 122.752 232.097 121.76C232.087 121.291 232.081 120.843 232.081 120.416C232.081 119.979 232.087 119.525 232.097 119.056C232.14 118.075 232.343 117.259 232.705 116.608C233.079 115.947 233.591 115.456 234.241 115.136C234.903 114.805 235.665 114.64 236.529 114.64C237.404 114.64 238.167 114.805 238.817 115.136C239.479 115.456 239.996 115.947 240.369 116.608C240.743 117.259 240.945 118.075 240.977 119.056C240.999 119.525 241.009 119.979 241.009 120.416C241.009 120.843 240.999 121.291 240.977 121.76C240.945 122.752 240.748 123.579 240.385 124.24C240.033 124.891 239.532 125.376 238.881 125.696C238.231 126.005 237.447 126.16 236.529 126.16ZM236.529 124.8C237.351 124.8 238.017 124.555 238.529 124.064C239.052 123.573 239.335 122.779 239.377 121.68C239.399 121.2 239.409 120.773 239.409 120.4C239.409 120.016 239.399 119.589 239.377 119.12C239.356 118.384 239.217 117.787 238.961 117.328C238.716 116.869 238.385 116.533 237.969 116.32C237.553 116.107 237.073 116 236.529 116C236.007 116 235.537 116.107 235.121 116.32C234.705 116.533 234.369 116.869 234.113 117.328C233.868 117.787 233.729 118.384 233.697 119.12C233.687 119.589 233.681 120.016 233.681 120.4C233.681 120.773 233.687 121.2 233.697 121.68C233.74 122.779 234.023 123.573 234.545 124.064C235.068 124.555 235.729 124.8 236.529 124.8ZM260.783 126.16C259.855 126.16 259.077 126.021 258.447 125.744C257.818 125.456 257.333 125.088 256.991 124.64C256.661 124.181 256.485 123.696 256.463 123.184C256.463 123.099 256.495 123.024 256.559 122.96C256.634 122.885 256.719 122.848 256.815 122.848H257.631C257.759 122.848 257.855 122.88 257.919 122.944C257.983 123.008 258.026 123.083 258.047 123.168C258.101 123.424 258.229 123.68 258.431 123.936C258.645 124.181 258.938 124.389 259.311 124.56C259.695 124.72 260.186 124.8 260.783 124.8C261.701 124.8 262.373 124.64 262.799 124.32C263.237 123.989 263.455 123.552 263.455 123.008C263.455 122.635 263.338 122.336 263.103 122.112C262.879 121.877 262.533 121.669 262.063 121.488C261.594 121.307 260.986 121.109 260.239 120.896C259.461 120.672 258.815 120.427 258.303 120.16C257.791 119.893 257.407 119.563 257.151 119.168C256.906 118.773 256.783 118.272 256.783 117.664C256.783 117.088 256.938 116.576 257.247 116.128C257.557 115.669 257.999 115.307 258.575 115.04C259.162 114.773 259.871 114.64 260.703 114.64C261.365 114.64 261.941 114.731 262.431 114.912C262.933 115.083 263.349 115.317 263.679 115.616C264.01 115.904 264.261 116.219 264.431 116.56C264.602 116.891 264.693 117.216 264.703 117.536C264.703 117.611 264.677 117.685 264.623 117.76C264.57 117.824 264.485 117.856 264.367 117.856H263.519C263.445 117.856 263.365 117.835 263.279 117.792C263.205 117.749 263.146 117.669 263.103 117.552C263.039 117.115 262.794 116.747 262.367 116.448C261.941 116.149 261.386 116 260.703 116C260.01 116 259.445 116.133 259.007 116.4C258.581 116.667 258.367 117.083 258.367 117.648C258.367 118.011 258.469 118.315 258.671 118.56C258.874 118.795 259.194 119.003 259.631 119.184C260.069 119.365 260.639 119.557 261.343 119.76C262.197 119.995 262.895 120.245 263.439 120.512C263.983 120.768 264.383 121.093 264.639 121.488C264.906 121.872 265.039 122.368 265.039 122.976C265.039 123.648 264.863 124.224 264.511 124.704C264.159 125.173 263.663 125.536 263.023 125.792C262.394 126.037 261.647 126.16 260.783 126.16ZM276.32 126.16C275.424 126.16 274.651 126 274 125.68C273.36 125.36 272.864 124.875 272.512 124.224C272.171 123.563 272 122.715 272 121.68V115.184C272 115.067 272.032 114.976 272.096 114.912C272.16 114.837 272.251 114.8 272.368 114.8H273.184C273.302 114.8 273.392 114.837 273.456 114.912C273.531 114.976 273.568 115.067 273.568 115.184V121.712C273.568 122.757 273.814 123.531 274.304 124.032C274.795 124.533 275.467 124.784 276.32 124.784C277.163 124.784 277.83 124.533 278.32 124.032C278.822 123.531 279.072 122.757 279.072 121.712V115.184C279.072 115.067 279.104 114.976 279.168 114.912C279.243 114.837 279.334 114.8 279.44 114.8H280.272C280.379 114.8 280.464 114.837 280.528 114.912C280.603 114.976 280.64 115.067 280.64 115.184V121.68C280.64 122.715 280.464 123.563 280.112 124.224C279.771 124.875 279.28 125.36 278.64 125.68C278 126 277.227 126.16 276.32 126.16ZM288.643 126C288.526 126 288.435 125.968 288.371 125.904C288.307 125.829 288.275 125.739 288.275 125.632V115.168C288.275 115.061 288.307 114.976 288.371 114.912C288.435 114.837 288.526 114.8 288.643 114.8H289.491C289.598 114.8 289.683 114.837 289.747 114.912C289.811 114.976 289.843 115.061 289.843 115.168V124.608H295.171C295.288 124.608 295.379 124.645 295.443 124.72C295.507 124.784 295.539 124.875 295.539 124.992V125.632C295.539 125.739 295.507 125.829 295.443 125.904C295.379 125.968 295.288 126 295.171 126H288.643Z" fill="#BFBFBF"/>
</svg>
