<svg width="236" height="30" viewBox="0 0 236 30" fill="none" xmlns="http://www.w3.org/2000/svg">
<path d="M11.3845 29.4C8.95787 29.4 6.9712 28.9333 5.42453 28C3.90453 27.04 2.7712 25.7467 2.02453 24.12C1.27786 22.4933 0.864531 20.64 0.784531 18.56C0.757865 17.4667 0.744531 16.2933 0.744531 15.04C0.744531 13.7867 0.757865 12.5867 0.784531 11.44C0.864531 9.36 1.27786 7.50667 2.02453 5.88C2.7712 4.22667 3.90453 2.93333 5.42453 2C6.9712 1.06667 8.95787 0.599998 11.3845 0.599998C13.2779 0.599998 14.8912 0.866665 16.2245 1.4C17.5579 1.93333 18.6379 2.64 19.4645 3.52C20.3179 4.37333 20.9445 5.30667 21.3445 6.32C21.7712 7.30667 22.0112 8.28 22.0645 9.24C22.0912 9.48 22.0112 9.68 21.8245 9.84C21.6645 9.97333 21.4645 10.04 21.2245 10.04H20.4245C20.2112 10.04 20.0245 9.98667 19.8645 9.88C19.7045 9.74667 19.5979 9.52 19.5445 9.2C19.0379 6.82666 18.0779 5.2 16.6645 4.32C15.2779 3.44 13.5179 3 11.3845 3C8.95787 3 7.02453 3.69333 5.58453 5.08C4.1712 6.44 3.4112 8.62667 3.30453 11.64C3.22453 13.8267 3.22453 16.0667 3.30453 18.36C3.4112 21.3733 4.1712 23.5733 5.58453 24.96C7.02453 26.32 8.95787 27 11.3845 27C13.5179 27 15.2779 26.56 16.6645 25.68C18.0779 24.8 19.0379 23.1733 19.5445 20.8C19.5979 20.48 19.7045 20.2667 19.8645 20.16C20.0245 20.0267 20.2112 19.96 20.4245 19.96H21.2245C21.4645 19.96 21.6645 20.04 21.8245 20.2C22.0112 20.3333 22.0912 20.52 22.0645 20.76C22.0112 21.72 21.7712 22.7067 21.3445 23.72C20.9445 24.7067 20.3179 25.64 19.4645 26.52C18.6379 27.3733 17.5579 28.0667 16.2245 28.6C14.8912 29.1333 13.2779 29.4 11.3845 29.4ZM25.7248 29C25.5115 29 25.3248 28.92 25.1648 28.76C25.0048 28.6 24.9248 28.4133 24.9248 28.2C24.9248 28.0667 24.9515 27.92 25.0048 27.76L35.1248 1.8C35.2315 1.53333 35.3648 1.33333 35.5248 1.2C35.7115 1.06666 35.9648 0.999998 36.2848 0.999998H37.6448C37.9648 0.999998 38.2048 1.06666 38.3648 1.2C38.5515 1.33333 38.6982 1.53333 38.8048 1.8L48.9248 27.76C48.9782 27.92 49.0048 28.0667 49.0048 28.2C49.0048 28.4133 48.9248 28.6 48.7648 28.76C48.6048 28.92 48.4182 29 48.2048 29H47.4048C47.1382 29 46.9382 28.9333 46.8048 28.8C46.6715 28.64 46.5782 28.5067 46.5248 28.4L44.0448 22H29.8848L27.4048 28.4C27.3782 28.5067 27.2848 28.64 27.1248 28.8C26.9915 28.9333 26.7915 29 26.5248 29H25.7248ZM30.8448 19.6H43.0848L36.9648 3.84L30.8448 19.6ZM54.6205 29C54.3538 29 54.1405 28.92 53.9805 28.76C53.8205 28.6 53.7405 28.3867 53.7405 28.12V1.92C53.7405 1.62667 53.8205 1.4 53.9805 1.24C54.1405 1.08 54.3538 0.999998 54.6205 0.999998H63.9405C66.7405 0.999998 68.9671 1.66666 70.6205 3C72.3005 4.33333 73.1405 6.36 73.1405 9.08C73.1405 11.2133 72.6071 12.92 71.5405 14.2C70.4738 15.48 68.9938 16.3467 67.1005 16.8L73.5405 27.76C73.6205 27.92 73.6605 28.0667 73.6605 28.2C73.6605 28.4133 73.5805 28.6 73.4205 28.76C73.2605 28.92 73.0738 29 72.8605 29H72.3805C71.9538 29 71.6338 28.8933 71.4205 28.68C71.2071 28.44 71.0205 28.1867 70.8605 27.92L64.5005 17.16H56.2605V28.12C56.2605 28.3867 56.1805 28.6 56.0205 28.76C55.8605 28.92 55.6338 29 55.3405 29H54.6205ZM56.2605 14.76H63.7405C66.0605 14.76 67.7805 14.2933 68.9005 13.36C70.0471 12.4 70.6205 10.9733 70.6205 9.08C70.6205 7.18667 70.0471 5.77333 68.9005 4.84C67.7805 3.88 66.0605 3.4 63.7405 3.4H56.2605V14.76ZM88.8064 29.4C86.5931 29.4 84.7131 29.0133 83.1664 28.24C81.6197 27.44 80.4331 26.2267 79.6064 24.6C78.7797 22.9467 78.3264 20.8667 78.2464 18.36C78.2197 17.16 78.2064 16.04 78.2064 15C78.2064 13.96 78.2197 12.84 78.2464 11.64C78.3264 9.16 78.8064 7.10667 79.6864 5.48C80.5664 3.82667 81.7797 2.6 83.3264 1.8C84.8997 0.999999 86.7264 0.599998 88.8064 0.599998C90.8864 0.599998 92.6997 0.999999 94.2464 1.8C95.8197 2.6 97.0464 3.82667 97.9264 5.48C98.8331 7.10667 99.3131 9.16 99.3664 11.64C99.4197 12.84 99.4464 13.96 99.4464 15C99.4464 16.04 99.4197 17.16 99.3664 18.36C99.3131 20.8667 98.8597 22.9467 98.0064 24.6C97.1797 26.2267 95.9931 27.44 94.4464 28.24C92.8997 29.0133 91.0197 29.4 88.8064 29.4ZM88.8064 27C91.0997 27 92.9797 26.3067 94.4464 24.92C95.9397 23.5333 96.7397 21.28 96.8464 18.16C96.8997 16.96 96.9264 15.9067 96.9264 15C96.9264 14.0933 96.8997 13.04 96.8464 11.84C96.7931 9.76 96.4064 8.06667 95.6864 6.76C94.9931 5.45333 94.0464 4.50667 92.8464 3.92C91.6731 3.30667 90.3264 3 88.8064 3C87.3131 3 85.9664 3.30667 84.7664 3.92C83.5931 4.50667 82.6464 5.45333 81.9264 6.76C81.2331 8.06667 80.8464 9.76 80.7664 11.84C80.7397 13.04 80.7264 14.0933 80.7264 15C80.7264 15.9067 80.7397 16.96 80.7664 18.16C80.8731 21.28 81.6731 23.5333 83.1664 24.92C84.6597 26.3067 86.5397 27 88.8064 27ZM106.691 29C106.424 29 106.211 28.92 106.051 28.76C105.891 28.6 105.811 28.3867 105.811 28.12V1.92C105.811 1.62667 105.891 1.4 106.051 1.24C106.211 1.08 106.424 0.999998 106.691 0.999998H107.531C107.797 0.999998 107.997 1.06666 108.131 1.2C108.264 1.33333 108.344 1.42666 108.371 1.48L123.131 24.04V1.92C123.131 1.62667 123.211 1.4 123.371 1.24C123.531 1.08 123.744 0.999998 124.011 0.999998H124.731C125.024 0.999998 125.251 1.08 125.411 1.24C125.571 1.4 125.651 1.62667 125.651 1.92V28.08C125.651 28.3467 125.571 28.5733 125.411 28.76C125.251 28.92 125.037 29 124.771 29H123.891C123.624 29 123.424 28.9333 123.291 28.8C123.184 28.6667 123.104 28.5733 123.051 28.52L108.331 6.04V28.12C108.331 28.3867 108.251 28.6 108.091 28.76C107.931 28.92 107.704 29 107.411 29H106.691ZM131.155 29C130.941 29 130.755 28.92 130.595 28.76C130.435 28.6 130.355 28.4133 130.355 28.2C130.355 28.0667 130.381 27.92 130.435 27.76L140.555 1.8C140.661 1.53333 140.795 1.33333 140.955 1.2C141.141 1.06666 141.395 0.999998 141.715 0.999998H143.075C143.395 0.999998 143.635 1.06666 143.795 1.2C143.981 1.33333 144.128 1.53333 144.235 1.8L154.355 27.76C154.408 27.92 154.435 28.0667 154.435 28.2C154.435 28.4133 154.355 28.6 154.195 28.76C154.035 28.92 153.848 29 153.635 29H152.835C152.568 29 152.368 28.9333 152.235 28.8C152.101 28.64 152.008 28.5067 151.955 28.4L149.475 22H135.315L132.835 28.4C132.808 28.5067 132.715 28.64 132.555 28.8C132.421 28.9333 132.221 29 131.955 29H131.155ZM136.275 19.6H148.515L142.395 3.84L136.275 19.6Z" fill="#111827"/>
<path d="M168.65 29.4C165.983 29.4 163.77 29.0267 162.01 28.28C160.25 27.5067 158.917 26.5067 158.01 25.28C157.103 24.0533 156.623 22.7467 156.57 21.36C156.57 21.1467 156.65 20.96 156.81 20.8C156.997 20.6133 157.21 20.52 157.45 20.52H162.49C162.863 20.52 163.143 20.5867 163.33 20.72C163.543 20.8533 163.73 21.0267 163.89 21.24C164.103 21.64 164.397 22.0267 164.77 22.4C165.17 22.7733 165.677 23.08 166.29 23.32C166.93 23.5333 167.717 23.64 168.65 23.64C170.197 23.64 171.357 23.4 172.13 22.92C172.93 22.44 173.33 21.7867 173.33 20.96C173.33 20.3733 173.117 19.8933 172.69 19.52C172.263 19.12 171.57 18.7733 170.61 18.48C169.677 18.16 168.423 17.84 166.85 17.52C164.823 17.0933 163.09 16.5467 161.65 15.88C160.237 15.1867 159.157 14.2933 158.41 13.2C157.663 12.08 157.29 10.6933 157.29 9.04C157.29 7.41333 157.743 5.96 158.65 4.68C159.583 3.4 160.877 2.4 162.53 1.68C164.183 0.959999 166.143 0.599998 168.41 0.599998C170.25 0.599998 171.863 0.839999 173.25 1.32C174.663 1.8 175.85 2.44 176.81 3.24C177.77 4.04 178.49 4.89333 178.97 5.8C179.477 6.68 179.743 7.54666 179.77 8.4C179.77 8.61333 179.69 8.81333 179.53 9C179.37 9.16 179.17 9.24 178.93 9.24H173.65C173.357 9.24 173.103 9.18667 172.89 9.08C172.677 8.97333 172.49 8.8 172.33 8.56C172.17 7.97333 171.743 7.46666 171.05 7.04C170.383 6.58667 169.503 6.36 168.41 6.36C167.237 6.36 166.317 6.57333 165.65 7C165.01 7.4 164.69 8.02667 164.69 8.88C164.69 9.41333 164.863 9.88 165.21 10.28C165.583 10.68 166.183 11.0267 167.01 11.32C167.863 11.6133 169.023 11.92 170.49 12.24C172.917 12.6933 174.877 13.2667 176.37 13.96C177.863 14.6267 178.957 15.5067 179.65 16.6C180.343 17.6667 180.69 19.0133 180.69 20.64C180.69 22.4533 180.17 24.0267 179.13 25.36C178.117 26.6667 176.703 27.6667 174.89 28.36C173.077 29.0533 170.997 29.4 168.65 29.4ZM196.135 29.4C193.681 29.4 191.548 29 189.735 28.2C187.921 27.4 186.508 26.2 185.495 24.6C184.481 22.9733 183.921 20.9467 183.815 18.52C183.788 17.3733 183.775 16.2267 183.775 15.08C183.775 13.9333 183.788 12.7733 183.815 11.6C183.921 9.2 184.481 7.18667 185.495 5.56C186.535 3.90667 187.961 2.66667 189.775 1.84C191.588 1.01333 193.708 0.599998 196.135 0.599998C198.535 0.599998 200.641 1.01333 202.455 1.84C204.295 2.66667 205.735 3.90667 206.775 5.56C207.815 7.18667 208.375 9.2 208.455 11.6C208.508 12.7733 208.535 13.9333 208.535 15.08C208.535 16.2267 208.508 17.3733 208.455 18.52C208.348 20.9467 207.788 22.9733 206.775 24.6C205.761 26.2 204.348 27.4 202.535 28.2C200.721 29 198.588 29.4 196.135 29.4ZM196.135 23.64C197.548 23.64 198.695 23.2133 199.575 22.36C200.481 21.5067 200.961 20.1467 201.015 18.28C201.068 17.1067 201.095 16 201.095 14.96C201.095 13.92 201.068 12.84 201.015 11.72C200.961 10.4667 200.721 9.45333 200.295 8.68C199.895 7.88 199.335 7.29333 198.615 6.92C197.895 6.54666 197.068 6.36 196.135 6.36C195.228 6.36 194.415 6.54666 193.695 6.92C192.975 7.29333 192.401 7.88 191.975 8.68C191.548 9.45333 191.308 10.4667 191.255 11.72C191.228 12.84 191.215 13.92 191.215 14.96C191.215 16 191.228 17.1067 191.255 18.28C191.335 20.1467 191.815 21.5067 192.695 22.36C193.575 23.2133 194.721 23.64 196.135 23.64ZM223.611 29.4C220.944 29.4 218.731 29.0267 216.971 28.28C215.211 27.5067 213.878 26.5067 212.971 25.28C212.064 24.0533 211.584 22.7467 211.531 21.36C211.531 21.1467 211.611 20.96 211.771 20.8C211.958 20.6133 212.171 20.52 212.411 20.52H217.451C217.824 20.52 218.104 20.5867 218.291 20.72C218.504 20.8533 218.691 21.0267 218.851 21.24C219.064 21.64 219.358 22.0267 219.731 22.4C220.131 22.7733 220.638 23.08 221.251 23.32C221.891 23.5333 222.678 23.64 223.611 23.64C225.158 23.64 226.318 23.4 227.091 22.92C227.891 22.44 228.291 21.7867 228.291 20.96C228.291 20.3733 228.078 19.8933 227.651 19.52C227.224 19.12 226.531 18.7733 225.571 18.48C224.638 18.16 223.384 17.84 221.811 17.52C219.784 17.0933 218.051 16.5467 216.611 15.88C215.198 15.1867 214.118 14.2933 213.371 13.2C212.624 12.08 212.251 10.6933 212.251 9.04C212.251 7.41333 212.704 5.96 213.611 4.68C214.544 3.4 215.838 2.4 217.491 1.68C219.144 0.959999 221.104 0.599998 223.371 0.599998C225.211 0.599998 226.824 0.839999 228.211 1.32C229.624 1.8 230.811 2.44 231.771 3.24C232.731 4.04 233.451 4.89333 233.931 5.8C234.438 6.68 234.704 7.54666 234.731 8.4C234.731 8.61333 234.651 8.81333 234.491 9C234.331 9.16 234.131 9.24 233.891 9.24H228.611C228.318 9.24 228.064 9.18667 227.851 9.08C227.638 8.97333 227.451 8.8 227.291 8.56C227.131 7.97333 226.704 7.46666 226.011 7.04C225.344 6.58667 224.464 6.36 223.371 6.36C222.198 6.36 221.278 6.57333 220.611 7C219.971 7.4 219.651 8.02667 219.651 8.88C219.651 9.41333 219.824 9.88 220.171 10.28C220.544 10.68 221.144 11.0267 221.971 11.32C222.824 11.6133 223.984 11.92 225.451 12.24C227.878 12.6933 229.838 13.2667 231.331 13.96C232.824 14.6267 233.918 15.5067 234.611 16.6C235.304 17.6667 235.651 19.0133 235.651 20.64C235.651 22.4533 235.131 24.0267 234.091 25.36C233.078 26.6667 231.664 27.6667 229.851 28.36C228.038 29.0533 225.958 29.4 223.611 29.4Z" fill="#D14343"/>
</svg>
